# xmcd
#
# Track frame offsets:
#       150
#       13451
#       22338
#       36575
#       49573
#       68258
#       80955
#       97326
#       107072
#       117518
#       127387
#       140387
#       151673
#       159280
#
# Disc length: 2352 seconds
#
# Revision: 3
# Processed by: cddbd v1.5.2PL0 Copyright (c) Steve Scherf et al.
# Submitted via: FreeDbEdit v0.1
# Normalized: r0:TRMNUM;r1:TDELIM( - )
#
DISCID=c9092e0e
DTITLE=Various Artist - A Country Christmas
DYEAR=1900
DGENRE=
TTITLE0=The Statler Brothers - Jingle Bells
TTITLE1=Roger Miller - Silent Night
TTITLE2=Joan Sutherland - The Twelve Days of Christmas
TTITLE3=Faron Young - If We Make It Through December
TTITLE4=Kathy Mattea - Nothing but a Child
TTITLE5=Lynn Anderson - When a Child Is Born
TTITLE6=Sammy Kershaw - Christmas Won't Be Christmas
TTITLE7=George Jones - Maybe Next Christmas
TTITLE8=Ray Stevens - Santa Clause Is Watching You
TTITLE9=Dave Dudley - Six Tons of Toys
TTITLE10=Connie Francis - Ave Maria
TTITLE11=Bob Willis - When It's Christmas on the Range
TTITLE12=Donna Fargo - Santa Clause Is Coming to Town
TTITLE13=The Statler Brothers - I'll Be Home for Christmas
EXTD=A Country Christmas
EXTT0=
EXTT1=
EXTT2=
EXTT3=
EXTT4=
EXTT5=
EXTT6=
EXTT7=
EXTT8=
EXTT9=
EXTT10=
EXTT11=
EXTT12=
EXTT13=
PLAYORDER=
